<svg xmlns="http://www.w3.org/2000/svg" viewBox="0 0 1731 557.02"><defs><style>.a{fill:var(--ts_ui_blk_3);fill-rule:evenodd;}</style></defs><path class="a" d="M231,262c12.1-.2,22.84,1.26,30,6l2,3h2l3,4h1v2l2,1v2l2,1v2h1v2h1l1,6c2.57,7.13,2.68,16.87,0,24v3h-1v2h-1l-2,6-2,1v2l-2,1-4,5h-2l-1,2h-2l-1,2h-2v1l-6,1v1h-4v1c-4.16,1.23-19.15.13-22-1v-1h-2v-1h-3v-1h-2v-1h-2l-1-2h-2l-2-3-5-4c-5-7.14-11.09-22.28-7-35l1-7h1l2-6h1v-2l3-2v-2h1l2-3h2l2-3h2l1-2,4-1v-1h3v-1h3v-1h5Z" transform="translate(-94 -261.98)"/><path class="a" d="M699,325c18.22-.35,25.82,3.31,33,14l2,1v2h1v2h1v3h1v5h1c1,3.61-.33,9.91-1,12l-1,7h-1l-2,6-3,2v2l-10,7-6,1v1c-4.49,1.4-14,0-17-1h-4v-1h-2v-1l-4-1-1-2h-2l-3-4-2-1v-2l-2-1-1-4h-1v-2h-1v-4c-.93-2.94-2.45-12.56-1-17h1v-3h1v-2h1v-3l2-1v-2l6-5,2-3h2v-1l4-1v-1l7-1Z" transform="translate(-94 -261.98)"/><path class="a" d="M382,327H638v48H538V698H482V375H382Z" transform="translate(-94 -261.98)"/><path class="a" d="M193,373h86c.84,1.13-.13.15,1,1,.07,4.64,1.86,6.89,3,10v4h1v3h1v3h1v3h1l2,10h1l1,7h1v3h1v3h1v3h1v4h1v3h1v3h1l3,13h1l3,13h1v4h1v3h1v3h1l3,13h1v4c11.06,30.25,19,63.74,30,94v4h1v3h1v3h1l3,13h1v4h1v3h1v3h1v3h1l2,10h1l3,13h1l3,13h1l4,17h1l2,10h1l5,19H94v-1h1l1-7h1l1-7h1v-3h1v-3h1v-3h1v-4h1v-3h1v-3h1v-3h1l2-10h1l3-13h1l3-13h1l4-17c13.79-37.78,23.31-79.22,37-117v-4h1v-3h1v-3h1l3-13h1v-4h1v-3h1v-3h1v-3h1l2-10h1l3-13h1l3-13h1l4-17h1l2-10h1Z" transform="translate(-94 -261.98)"/><path class="a" d="M997,698H946l-4-31h-2c-2.5,5.34-7.1,8.11-11,12l-4,5h-2l-1,2-3,1v1h-2l-1,2-4,1-1,2h-3v1h-2v1l-4,1v1l-10,2v1h-3v1l-13,1c-12.36,3.46-35.22-1.08-44-5v-1l-6-2v-1l-4-1-1-2h-2l-2-3h-2l-3-4-8-7v-2l-3-2v-2l-2-1-1-4-2-1-1-5h-1l-1-4h-1v-3h-1v-3h-1v-4h-1v-5h-1v-8h-1V618h1l1-14h1v-4h1v-4h1v-3h1v-3h1l2-6h1l1-4,2-1,1-4,3-2v-2l6-5v-2l2-2h2l5-6,3-1,1-2h2l1-2,4-1,1-2h2l2-2h2v-1h2c25.41-13.54,59.09-18.86,98-19,.47-29-8-47.32-28-56h-3v-1h-3v-1h-5v-1h-8v-1l-25,1v1h-6l-26,8v1l-6,2v1h-2v1h-2v1h-2v1c-1.38.91-1.75.68-4,1-.37-5.2-2.48-9.18-4-13l-2-10h-1l-4-14,3-1v-1h2v-1h2l1-2h2v-1h2v-1l5-1v-1h2v-1l6-1v-1h2v-1l7-1v-1h3v-1h4v-1h4v-1h5v-1l13-1c8.2-2.35,27.77-3.59,37-1h9v1h5v1h5v1h4v1h3v1h3v1h3v1h2v1l9,3,1,2,4,1,1,2,3,1,3,4h2l1,2,5,4v2l4,3v2l2,1,1,3h1l1,4,2,1v2h1v2h1v3h1l1,4h1l2,10c6.21,17.56,6,39.83,6,64v73c0,11.28-1.65,26.52,1,36v17Z" transform="translate(-94 -261.98)"/><path class="a" d="M1283,698h-56V581c0-38.69,2.19-71.18-14-94l-3-2-3-4h-2l-2-3-6-2v-1l-6-1v-1h-4v-1h-11c-14.52,0-20.48,3.29-29,9h-2l-2,3h-2l-5,6-2,1v2l-3,2v2l-2,1-1,4-2,1-1,5h-1v2h-1v3h-1c-5.17,14.55-3,42.67-3,62V698h-56V483c-1.7-6.09-1-16.26-1-24l-1-28h49l3,39h2c1.77-8,9-13,14-18l6-7h2l2-3h2l1-2,3-1v-1l4-1v-1h2v-1l6-2v-1h3v-1h2v-1h3v-1l13-2c20.52-6.15,50.16,1.87,63,10l1,2h2l2,3h2l4,5,9,8v2l3,2v2l2,1,1,4,2,1,9,22v4h1v4h1v5h1v6h1v9c1.47,5.24,1,14.15,1,21V698Z" transform="translate(-94 -261.98)"/><path class="a" d="M677,431h56V698H677Z" transform="translate(-94 -261.98)"/><path class="a" d="M1386,431l6,21h1l2,10c5,12.53,9,27.42,14,40l2,9h1l2,10c10,25.13,16.71,53.11,26,79v4h1v3h1v4l7,24h1c.42-6.51,3.18-12.69,5-18l2-12h1v-3h1l2-11h1v-4h1l2-11h1v-4h1v-3h1v-4c5.48-15,9.55-32.85,15-48v-4h1v-3h1v-4c3.48-9.62,6.54-21.37,10-31v-4h1v-3h1v-4h1l9-33h59l-5,17h-1v2h-1l-2,9h-1l-1,6h-1l-1,6h-1v2h-1v3h-1l-5,18c-9.87,22.47-16.17,48.51-26,71v3h-1v3h-1v3h-1v3h-1l-2,9h-1v2h-1v3h-1l-2,9h-1l-2,9h-1v2h-1v3h-1v3h-1v3h-1v3h-1v2h-1l-2,9h-1v2h-1l-1,6h-1v2h-1l-1,6h-1v2h-1l-1,6h-1l-1,5h-1v2h-1v3h-1v2h-1l-1,6h-1l-1,4h-1v3h-1v2h-1v3h-1l-1,4h-1v3h-1l-1,4h-1v3h-1l-2,6h-1v2h-1v3h-1l-2,6h-1v2h-1v2h-1v2h-1v2l-2,2v2l-2,1v2h-1v2l-2,2v2l-2,1v2l-2,2v2h-1l-1,3-2,1v2l-2,1v2h-1l-1,3-2,1v2l-3,2v2l-3,2v2l-5,4v2l-9,8-3,4h-2l-4,5h-2l-2,3h-2l-1,2-3,1v1h-2l-1,2-3,1v1l-6,2-1,2h-2v1l-4,1v1l-24,8v-2h-1l-1-6h-1v-4h-1v-3h-1l-1-7h-1v-3h-1v-3h-1v-3h-1v-4h-1l-3-13c23.4-9,42.47-22.14,56-41l4-3v-2l2-1v-2l3-2,1-4,2-1,1-4,2-1v-2h1v-2h1v-3h1l1-4h1l1-6h1c2.54-8.13-3.13-16.71-5-21l-1-6h-1v-2h-1v-3h-1v-3h-1v-2h-1l-1-6h-1v-2h-1l-1-6h-1v-2h-1l-2-9h-1v-2h-1l-1-6h-1v-2h-1l-1-6h-1v-2h-1l-1-6h-1v-2h-1l-2-9h-1v-2h-1l-1-6h-1v-2h-1l-1-6c-13.49-30.86-23.56-65.12-37-96l-2-9h-1v-2h-1l-1-6h-1v-2h-1l-1-6h-1v-2h-1l-1-6h-1v-2h-1l-6-18Z" transform="translate(-94 -261.98)"/><path class="a" d="M1605,431h56V547c0,53.58-2.54,96.77,40,109h12a50.64,50.64,0,0,0,24-6v-1l4-1,2-3h2l4-5,6-5v-2l2-1,1-3h1v-2h1l1-4h1l2-9h1v-5c4.15-13.81,2-35.93,2-53V431h56V651c1.77,6.31.32,16.14,1,24,.55,6.36,1,15.13,1,23h-49l-3-39h-2l-1,3h-1l-1,3-2,1v2l-2,1v1l-3,2v2l-2,1-2,3h-2l-5,6h-2l-1,2-3,1v1h-2l-1,2-4,1-1,2-5,1v1l-4,1v1h-3v1h-3v1h-3v1l-9,1c-14.44,4.32-35.42,1.61-47-3h-3v-1h-2v-1h-3v-1h-2v-1h-2l-1-2-4-1-1-2h-2l-3-4h-2l-5-6-2-1v-2l-4-3v-2l-2-1v-2l-2-1-2-6-2-1v-3h-1l-1-4h-1v-3h-1v-2h-1l-1-7h-1v-3h-1v-4h-1l-1-11c-4.8-16.49-3-40.37-3-61Z" transform="translate(-94 -261.98)"/><path class="a" d="M175,645H293l-3-13h-1v-3h-1v-4h-1v-3h-1v-3h-1l-2-10h-1l-5-21c-5.31-14.52-9.72-31.47-15-46v-4h-1v-3h-1v-3h-1v-4c-7.78-21.47-11.48-47-19-69v-4c-2.26-6.63-3.41-15.45-6-22h-1c-.08,4.84-1.84,8.46-3,12v5h-1v4h-1v4h-1v5h-1v4h-1v4h-1v5h-1v4h-1v4h-1l-1,9h-1l-2,12h-1l-2,12h-1l-1,7h-1l-1,7h-1v3h-1v3h-1v4h-1v3h-1v3h-1v3h-1l-2,10h-1l-2,10h-1l-2,10h-1l-3,13h-1v4h-1v3h-1v3h-1v4h-1v3h-1v3h-1v3h-1l-2,10h-1v4C178.4,634.43,176.09,639.78,175,645Z" transform="translate(-94 -261.98)"/><path class="a" d="M938,564c-35.94-.65-70.43,5.38-85,26l-3,2-1,4h-1l-1,4h-1l-1,6h-1v6h-1c-1.71,6.08,1.42,23.43,3,27h1l1,4h1v2l2,1v2l4,3,3,4h2l1,2h2v1h2v1h3v1h4c24.24,7.74,50-9.81,59-24v-2h1l2-6h1v-3h1l1-8h1Z" transform="translate(-94 -261.98)"/></svg>